<?xml version="1.0" standalone="no"?><!-- Generator: Gravit.io --><svg xmlns="http://www.w3.org/2000/svg" xmlns:xlink="http://www.w3.org/1999/xlink" style="isolation:isolate" viewBox="0 0 500 500" width="500" height="500"><defs><clipPath id="_clipPath_tmO2L0OKYQXxHOZIMrNsD5YVTP4zN4cJ"><rect width="500" height="500"/></clipPath></defs><g clip-path="url(#_clipPath_tmO2L0OKYQXxHOZIMrNsD5YVTP4zN4cJ)"><path d=" M 375 33.75 C 305 33.75 250 103.75 250 103.75 C 250 103.75 195 33.75 125 33.75 C 55 33.75 0 88.75 0 158.75 C 0 328.75 250 466.25 250 466.25 C 250 466.25 500 328.75 500 158.75 C 500 88.75 445 33.75 375 33.75 Z " fill="rgb(255,0,0)"/><clipPath id="_clipPath_ZCYTDrWZhxQuXdUYRkWCxTJTUTooMvrd"><path d=" M 375 33.75 C 305 33.75 250 103.75 250 103.75 C 250 103.75 195 33.75 125 33.75 C 55 33.75 0 88.75 0 158.75 C 0 328.75 250 466.25 250 466.25 C 250 466.25 500 328.75 500 158.75 C 500 88.75 445 33.75 375 33.75 Z " fill="rgb(255,0,0)"/></clipPath><g clip-path="url(#_clipPath_ZCYTDrWZhxQuXdUYRkWCxTJTUTooMvrd)"><path d=" M 302.313 311.368 C 364.133 312.678 356.469 344.421 348.625 361.637 C 336.982 387.19 305.128 407.574 339.038 466.25 L 456.799 300.687 C 453.907 291.474 449.969 284.289 444.952 279.099 C 447.166 278.268 449.883 278.279 453.068 279.099 C 447.692 266.08 441.413 256.667 434.198 250.825 C 436.261 249.908 438.978 249.919 442.314 250.825 C 436.543 236.479 429.217 224.384 420.304 214.509 C 422.78 213.305 425.6 213.374 428.282 214.509 C 423.101 202.92 416.256 194.434 407.713 187.093 C 410.361 185.431 413.14 184.957 416.015 185.636 C 409.28 173.842 400.746 165.891 390.38 161.749 C 392.554 159.035 395.623 157.638 399.556 157.525 C 390.028 151.117 378.062 147.277 363.628 145.97 L 332.409 134.026 C 324.829 134.193 318.011 135.79 311.92 138.784 C 311.165 137.732 311.176 136.772 311.92 135.871 C 305.524 137.254 302.213 139.817 299.041 143.526 C 298.308 142.379 298.044 141.152 298.216 139.812 C 293.355 142.379 289.24 146.242 285.835 151.367" fill="rgb(198,3,3)"/></g><path d=" M 260.787 176.167 C 275.188 153.159 300.758 137.845 329.878 137.845 C 374.831 137.845 411.326 174.34 411.326 219.292 C 411.326 264.244 374.827 300.739 329.878 300.739 C 328.894 300.739 327.914 300.722 326.938 300.687 L 260.787 176.167 Z " fill="rgb(198,3,3)"/><path d=" M 191.488 308.476 C 180.499 294.469 171.899 278.277 169.109 262.587 C 217.165 250.271 227.262 189.499 283.893 152.221 L 361.284 294.473 C 319.868 313.132 270.363 325.349 212.456 330.204 C 208.64 327.013 204.861 323.479 201.212 319.676 L 205.694 311.368 L 232.137 311.368 L 243.608 294.946 L 269.327 294.946 L 271.621 261.621 L 259.546 285.77 L 236.363 283.113 L 227.066 294.946 L 201.71 293.497 L 191.488 308.476 Z " fill="rgb(198,3,3)"/><path d=" M 325.917 137.845 C 353.028 104.877 390.632 87.898 438.704 86.868 C 402.903 106.093 382.234 133.169 376.673 168.055" fill="rgb(198,3,3)"/><path d=" M 370.873 180.851 L 428.282 139.812 C 425.112 159.385 431.42 175.156 447.174 187.093 C 441.459 199.22 442.693 212.435 450.843 226.706 L 379.31 232.575" fill="rgb(198,3,3)"/><path d=" M 175.491 325.172 C 39.762 348.355 178.793 181.444 108.36 101.657 C 220.245 176.308 66.908 315.339 175.491 325.172 Z " fill="rgb(198,3,3)"/><path d=" M 108.36 327.36 C 21.461 303.84 103.005 228.028 61.842 144.66 C 125.149 212.657 50.9 284.04 108.36 327.36 Z " fill="rgb(198,3,3)"/><path d=" M 110.837 313.417 C 70.892 283.978 119.865 225.101 91.252 115.6 C 142.15 189.334 80.247 263.619 110.837 313.417 Z " fill="rgb(198,3,3)"/></g></svg>